<?xml version="1.0" encoding="UTF-8"?>
<svg version="1.1" xmlns="http://www.w3.org/2000/svg" width="700" height="200">
<path d="M0 0 C2.82371806 0.00315662 5.64638153 -0.02036696 8.4699707 -0.0456543 C24.64696391 -0.10295388 42.35520029 0.32200512 55.12426758 11.61254883 C66.7860596 23.82424649 68.67084954 38.9692042 68.69458008 55.23364258 C68.69790848 56.05335037 68.70123688 56.87305817 68.70466614 57.71760559 C68.70969295 59.44112595 68.71207579 61.16465591 68.71191406 62.88818359 C68.71409137 65.47941756 68.73226761 68.07021849 68.7512207 70.66137695 C68.81121836 88.15901949 68.28558873 105.95658092 55.52661133 119.31567383 C41.9145526 131.99384911 23.5332458 131.67210771 6.05322266 131.63134766 C3.22950459 131.62819104 0.40684112 131.65171461 -2.41674805 131.67700195 C-19.80525284 131.73811178 -37.30139017 130.83485525 -50.65698242 118.31567383 C-61.16890574 106.74125504 -62.61948212 91.39060056 -62.64135742 76.39770508 C-62.64468582 75.57799728 -62.64801422 74.75828949 -62.65144348 73.91374207 C-62.65647029 72.1902217 -62.65885313 70.46669175 -62.65869141 68.74316406 C-62.66086871 66.1519301 -62.67904495 63.56112916 -62.69799805 60.9699707 C-62.75799571 43.47232816 -62.23236608 25.67476673 -49.47338867 12.31567383 C-35.86132994 -0.36250146 -17.48002314 -0.04076005 0 0 Z " fill="#1070CA" transform="translate(62.473388671875,-0.315673828125)"/>
<path d="M0 0 C2.9375 2.6875 2.9375 2.6875 5 5 C5.43570313 4.59007812 5.87140625 4.18015625 6.3203125 3.7578125 C12.08937426 -1.4618148 16.93230253 -3.46979136 24.76171875 -3.24609375 C29.77582837 -2.69480421 33.50282542 -0.86888845 36.8125 2.875 C40.92777767 8.75396811 41.28015208 13.25929462 41.1953125 20.23828125 C41.1924826 21.11904831 41.18965271 21.99981537 41.18673706 22.90727234 C41.17557833 25.70915545 41.15048171 28.51071416 41.125 31.3125 C41.11496463 33.21679225 41.10583975 35.12108952 41.09765625 37.02539062 C41.07565309 41.68371797 41.04115294 46.34180406 41 51 C36.38 51 31.76 51 27 51 C26.95101562 48.91558594 26.90203125 46.83117187 26.8515625 44.68359375 C26.79741317 42.64470802 26.7401609 40.6059311 26.68261719 38.56713867 C26.64454707 37.15999602 26.60965755 35.75276331 26.578125 34.34545898 C26.5319922 32.31201177 26.47408432 30.27917293 26.4140625 28.24609375 C26.3826416 27.02591553 26.3512207 25.8057373 26.31884766 24.54858398 C25.89453944 19.82628695 25.43809363 15.43809363 22 12 C17.74125503 11.43752425 15.72932054 11.48137206 12.1875 14 C7.00075737 21.11324703 7.5982364 30.03561969 7.375 38.5 C7.33632813 39.70398438 7.29765625 40.90796875 7.2578125 42.1484375 C7.16415263 45.09872329 7.08101523 48.04933991 7 51 C2.38 51 -2.24 51 -7 51 C-7.04898438 48.74800781 -7.09796875 46.49601562 -7.1484375 44.17578125 C-7.20251196 41.98471674 -7.25979391 39.79375782 -7.31738281 37.6027832 C-7.35556704 36.08496022 -7.39043808 34.56704999 -7.421875 33.04907227 C-7.46775628 30.86182569 -7.52571029 28.67517418 -7.5859375 26.48828125 C-7.6173584 25.17384033 -7.6487793 23.85939941 -7.68115234 22.50512695 C-8.08553058 18.05975305 -8.82532598 15.17467402 -12 12 C-15.37306618 11.41585298 -15.37306618 11.41585298 -19 12 C-22.15954305 14.54137159 -23.71540886 16.14622659 -25 20 C-25.15179014 22.3555448 -25.24899289 24.71475123 -25.31640625 27.07421875 C-25.33718735 27.7580513 -25.35796844 28.44188385 -25.37937927 29.1464386 C-25.44466154 31.3266921 -25.50366017 33.50706405 -25.5625 35.6875 C-25.60570553 37.16732986 -25.64932047 38.64714783 -25.69335938 40.12695312 C-25.80109025 43.75118254 -25.90032107 47.37550438 -26 51 C-30.95 51 -35.9 51 -41 51 C-41 33.84 -41 16.68 -41 -1 C-36.38 -1 -31.76 -1 -27 -1 C-26.67 0.32 -26.34 1.64 -26 3 C-25.29875 2.38125 -24.5975 1.7625 -23.875 1.125 C-16.30196308 -4.47246207 -8.07902488 -4.42059852 0 0 Z " fill="#304754" transform="translate(659,46)"/>
<path d="M0 0 C5.65280024 4.43029076 7.85583809 8.70540964 9.80078125 15.59375 C9.80078125 19.55375 9.80078125 23.51375 9.80078125 27.59375 C-2.73921875 27.59375 -15.27921875 27.59375 -28.19921875 27.59375 C-25.24441962 35.19341536 -25.24441962 35.19341536 -21.88671875 37.09375 C-15.75845761 38.23389161 -11.54828271 37.92205647 -6.19921875 34.59375 C-4.87921875 33.27375 -3.55921875 31.95375 -2.19921875 30.59375 C1.43078125 32.57375 5.06078125 34.55375 8.80078125 36.59375 C6.13610312 43.25544532 1.72389752 47.56980619 -4.88671875 50.53125 C-12.21847146 52.85947917 -21.31639298 52.84720083 -28.36328125 49.62109375 C-35.93693837 45.3830686 -40.39271866 40.9890563 -43.19921875 32.59375 C-45.03681942 24.01022057 -44.40919496 16.06917884 -40.01171875 8.40625 C-30.87838454 -4.96090386 -13.88958493 -8.88143974 0 0 Z M-24.19921875 10.59375 C-26.93120994 13.2107982 -26.93120994 13.2107982 -28.19921875 16.59375 C-20.60921875 16.59375 -13.01921875 16.59375 -5.19921875 16.59375 C-6.36814418 11.91804829 -7.21122316 11.10792113 -11.19921875 8.59375 C-16.57374241 7.12797082 -19.56140858 7.50187655 -24.19921875 10.59375 Z " fill="#304754" transform="translate(246.19921875,47.40625)"/>
<path d="M0 0 C10.89 0 21.78 0 33 0 C33 22.11 33 44.22 33 67 C24.60684035 65.47397097 19.71362172 64.47574781 13 60 C11.948125 59.319375 10.89625 58.63875 9.8125 57.9375 C4.78354938 53.56877474 2.0629282 46.18878461 0 40 C-0.08544291 38.66471193 -0.11774625 37.32556112 -0.11352539 35.98754883 C-0.11344986 35.18694534 -0.11337433 34.38634186 -0.11329651 33.56147766 C-0.10813522 32.70201035 -0.10297394 31.84254303 -0.09765625 30.95703125 C-0.0962413 30.0734343 -0.09482635 29.18983734 -0.09336853 28.27946472 C-0.08777069 25.45710872 -0.07521861 22.63483203 -0.0625 19.8125 C-0.05748472 17.89908969 -0.05292186 15.98567813 -0.04882812 14.07226562 C-0.03865283 9.38145527 -0.01907698 4.69081642 0 0 Z " fill="#F8FAFD" transform="translate(34,40)"/>
<path d="M0 0 C4.95 0 9.9 0 15 0 C15.04898437 2.40796875 15.09796875 4.8159375 15.1484375 7.296875 C15.20247488 9.63352579 15.25977147 11.97007555 15.31738281 14.30664062 C15.35562358 15.92830859 15.39048503 17.55005996 15.421875 19.171875 C15.46763257 21.50551117 15.52560816 23.83857562 15.5859375 26.171875 C15.59748871 26.89493835 15.60903992 27.61800171 15.62094116 28.36297607 C15.75859843 33.50658937 15.75859843 33.50658937 18 38 C21.51159727 39.45764415 23.91925068 40.20106964 27.6875 39.5 C30.87164144 37.43461096 32.23042172 35.34955889 34 32 C35.30153366 25.43035392 35.33095347 18.73939094 35.5625 12.0625 C35.62727539 10.32129883 35.62727539 10.32129883 35.69335938 8.54492188 C35.79884782 5.69673399 35.89986992 2.8483813 36 0 C40.62 0 45.24 0 50 0 C50 17.16 50 34.32 50 52 C45.38 52 40.76 52 36 52 C35.505 50.02 35.505 50.02 35 48 C33.6078125 49.2065625 33.6078125 49.2065625 32.1875 50.4375 C27.55310728 54.45397369 23.01170942 54.34187471 17.08203125 54.27734375 C11.13932389 53.74257541 7.44748401 51.7141258 3.625 47.1875 C0.40439876 40.87016681 -0.28799031 35.16458575 -0.1953125 28.22265625 C-0.1924826 27.41130722 -0.18965271 26.59995819 -0.18673706 25.76402283 C-0.17562663 23.19669247 -0.15053971 20.62972322 -0.125 18.0625 C-0.11495836 16.31185403 -0.10583459 14.56120254 -0.09765625 12.81054688 C-0.07571734 8.54022746 -0.0412516 4.27017475 0 0 Z " fill="#304855" transform="translate(364,45)"/>
<path d="M0 0 C3.99464569 2.91333642 7.25328649 5.87992973 10 10 C9.9296875 12.046875 9.9296875 12.046875 9 14 C6.8203125 15.265625 6.8203125 15.265625 4.125 16.25 C3.24070312 16.58515625 2.35640625 16.9203125 1.4453125 17.265625 C-1 18 -1 18 -4 18 C-5.37868281 16.37064759 -6.71274093 14.70250393 -8 13 C-11.21498139 11.3925093 -14.51298258 11.52685451 -18 12 C-22.05549932 14.1028515 -24.32004909 15.76957815 -26 20 C-26.7121481 25.01815989 -26.52912753 28.94174495 -24.25 33.5 C-20.77679578 37.3591158 -19.29757146 37.91761451 -14.0625 38.25 C-10.65757269 38.14854965 -7.98909407 37.75829063 -5 36 C-3.65589738 33.98264795 -3.65589738 33.98264795 -3 32 C2.34844008 32.53484401 6.35796103 34.46690767 11 37 C8.71640429 43.66048749 5.05890972 47.48583236 -1 51 C-8.78922451 54.06515323 -18.09424517 54.60933189 -25.9375 51.375 C-34.54020933 46.80181251 -38.94410758 41.16767726 -42 32 C-42.83584388 21.33956497 -41.81121002 13.68480478 -35.25 5.1875 C-26.55869244 -4.31999634 -11.18208693 -5.85631195 0 0 Z " fill="#304754" transform="translate(557,46)"/>
<path d="M0 0 C3.40249201 2.7676455 6.22082025 5.55337144 7.98828125 9.640625 C6.98828125 12.640625 6.98828125 12.640625 4.84375 13.84375 C3.96332031 14.18921875 3.08289063 14.5346875 2.17578125 14.890625 C1.30308594 15.24640625 0.43039062 15.6021875 -0.46875 15.96875 C-3.19387369 16.68875196 -4.42734617 16.69000307 -7.01171875 15.640625 C-8.38482582 14.34828893 -9.72206699 13.01625354 -11.01171875 11.640625 C-14.12125254 10.0858581 -16.57438636 10.35418063 -20.01171875 10.640625 C-23.99128079 12.55387598 -25.68413647 14.09113214 -27.94921875 17.890625 C-29.48524896 23.31190809 -28.68362942 27.06496744 -27.26171875 32.515625 C-26.15179177 34.7712194 -26.15179177 34.7712194 -23.94921875 35.953125 C-19.86517489 36.90896505 -16.16194275 37.50347226 -12.01171875 36.640625 C-9.99164518 35.22013502 -8.32474359 33.63899146 -6.55078125 31.92578125 C-5.01171875 30.640625 -5.01171875 30.640625 -2.63671875 30.515625 C-1.77046875 30.886875 -0.90421875 31.258125 -0.01171875 31.640625 C0.75011719 31.96417969 1.51195312 32.28773437 2.296875 32.62109375 C4.54532473 33.59273271 6.77029083 34.60169702 8.98828125 35.640625 C7.35099766 41.64399818 3.0342885 45.57369151 -1.98046875 48.9765625 C-9.36651928 52.862507 -17.87457976 52.82021262 -25.88671875 50.98046875 C-33.41625289 48.32906267 -38.66155615 43.64846068 -42.44921875 36.640625 C-45.55656927 28.77136069 -45.23987208 19.16323265 -42.57421875 11.203125 C-39.61227925 4.9674629 -34.78044459 0.42013466 -28.5546875 -2.51953125 C-19.07090822 -5.73057463 -8.50735888 -5.74866192 0 0 Z " fill="#304754" transform="translate(306.01171875,47.359375)"/>
<path d="M0 0 C4.95 0 9.9 0 15 0 C15 5.28 15 10.56 15 16 C18.96 16 22.92 16 27 16 C27 20.29 27 24.58 27 29 C23.04 29 19.08 29 15 29 C15.1134549 32.95897882 15.2402125 36.91674032 15.375 40.875 C15.4059375 42.00292969 15.436875 43.13085938 15.46875 44.29296875 C15.50742187 45.36933594 15.54609375 46.44570312 15.5859375 47.5546875 C15.63306885 49.04718018 15.63306885 49.04718018 15.68115234 50.56982422 C15.77247083 53.17854517 15.77247083 53.17854517 18 55 C20.68839385 55.26991906 23.29141936 55.08737357 26 55 C29.62870159 64.41002278 29.62870159 64.41002278 28 69 C21.73132996 70.85960547 14.6701811 70.9059543 8.5 68.8125 C4.10923241 65.62919349 1.68007297 62.11609024 0 57 C-0.22705078 53.86206055 -0.22705078 53.86206055 -0.1953125 50.38671875 C-0.18886719 49.13955078 -0.18242187 47.89238281 -0.17578125 46.60742188 C-0.15902344 45.31384766 -0.14226562 44.02027344 -0.125 42.6875 C-0.11597656 41.37458984 -0.10695313 40.06167969 -0.09765625 38.70898438 C-0.07411797 35.47247087 -0.0412352 32.23632851 0 29 C-2.97 29 -5.94 29 -9 29 C-9 24.71 -9 20.42 -9 16 C-6.03 16 -3.06 16 0 16 C0 10.72 0 5.44 0 0 Z " fill="#314754" transform="translate(458,29)"/>
<path d="M0 0 C0.495 0.33 0.99 0.66 1.5 1 C0.95144652 5.571279 0.08255197 9.67435795 -1.5 14 C-2.47839844 13.93039063 -2.47839844 13.93039063 -3.4765625 13.859375 C-9.36828361 13.61605908 -12.91578544 13.8742069 -17.5 18 C-19.88914927 21.5770157 -19.81015161 24.9461655 -19.9140625 29.171875 C-19.93342865 29.8542926 -19.9527948 30.53671021 -19.9727478 31.23980713 C-20.03231098 33.40974608 -20.07883446 35.57973877 -20.125 37.75 C-20.16320131 39.22528297 -20.2022543 40.70054415 -20.2421875 42.17578125 C-20.33959015 45.78373785 -20.41933886 49.39147513 -20.5 53 C-25.45 53 -30.4 53 -35.5 53 C-35.5 35.84 -35.5 18.68 -35.5 1 C-30.88 1 -26.26 1 -21.5 1 C-21.17 2.32 -20.84 3.64 -20.5 5 C-20.02949219 4.65066406 -19.55898438 4.30132812 -19.07421875 3.94140625 C-18.45160156 3.48636719 -17.82898438 3.03132813 -17.1875 2.5625 C-16.57261719 2.11003906 -15.95773437 1.65757813 -15.32421875 1.19140625 C-10.76170276 -1.78839541 -4.97522164 -1.99008866 0 0 Z " fill="#304755" transform="translate(610.5,44)"/>
<path d="M0 0 C-0.31008884 1.60463449 -0.62316287 3.20869231 -0.9375 4.8125 C-1.11152344 5.70582031 -1.28554688 6.59914063 -1.46484375 7.51953125 C-2 10 -2 10 -3 13 C-3.66386719 12.96519531 -4.32773437 12.93039063 -5.01171875 12.89453125 C-12.02264576 12.62563142 -12.02264576 12.62563142 -18 16 C-22.17320245 20.47128833 -22.12116699 25.50946214 -22.31640625 31.39453125 C-22.35830078 32.59658203 -22.40019531 33.79863281 -22.44335938 35.03710938 C-22.50233398 36.90592773 -22.50233398 36.90592773 -22.5625 38.8125 C-22.60568359 40.07771484 -22.64886719 41.34292969 -22.69335938 42.64648438 C-22.79924407 45.7642004 -22.90010774 48.88208622 -23 52 C-27.62 52 -32.24 52 -37 52 C-37 34.84 -37 17.68 -37 0 C-32.38 0 -27.76 0 -23 0 C-22.67 1.32 -22.34 2.64 -22 4 C-21.278125 3.38125 -20.55625 2.7625 -19.8125 2.125 C-13.70704651 -2.48800931 -6.94153081 -3.89591484 0 0 Z " fill="#304855" transform="translate(359,45)"/>
<path d="M0 0 C-0.31008884 1.60463449 -0.62316287 3.20869231 -0.9375 4.8125 C-1.11152344 5.70582031 -1.28554687 6.59914063 -1.46484375 7.51953125 C-2 10 -2 10 -3 13 C-3.65226562 12.97679687 -4.30453125 12.95359375 -4.9765625 12.9296875 C-12.29555477 12.60204634 -12.29555477 12.60204634 -19 15 C-22.93503828 22.1775795 -22.54534727 30.62225452 -22.6875 38.5625 C-22.72166016 39.85736328 -22.75582031 41.15222656 -22.79101562 42.48632812 C-22.8729216 45.65725946 -22.93815051 48.82861406 -23 52 C-27.62 52 -32.24 52 -37 52 C-37 34.84 -37 17.68 -37 0 C-32.71 0 -28.42 0 -24 0 C-23.67 1.65 -23.34 3.3 -23 5 C-22.113125 4.21625 -21.22625 3.4325 -20.3125 2.625 C-14.05078188 -2.53945443 -7.49377333 -3.63334464 0 0 Z " fill="#304754" transform="translate(203,45)"/>
<path d="M0 0 C5.08574912 2.19049119 8.82642325 5.12811802 10.9609375 10.3359375 C11.93450201 16.24285296 11.44438619 21.34299438 7.9609375 26.3359375 C4.00917647 30.30929285 0.42306491 32.45095465 -5.2265625 32.7109375 C-10.53562504 32.6416512 -14.09328831 30.81859265 -18.0390625 27.3359375 C-21.88784367 22.28441222 -21.83191876 16.44184205 -21.0390625 10.3359375 C-17.35381163 2.04412304 -8.88498832 -2.89357857 0 0 Z " fill="#FBFCFE" transform="translate(91.0390625,40.6640625)"/>
<path d="M0 0 C4.95 0 9.9 0 15 0 C15 17.16 15 34.32 15 52 C10.05 52 5.1 52 0 52 C0 34.84 0 17.68 0 0 Z " fill="#314855" transform="translate(426,45)"/>
<path d="M0 0 C2.75329021 1.79562405 4.52627461 3.05254922 6 6 C6.3724496 9.94796574 6.34935635 12.33040033 4.5 15.875 C1.1468501 18.72517741 -1.64227735 19.30322126 -6 19 C-8.90208571 17.80131242 -10.40814148 16.72637182 -12.375 14.3125 C-13.34637358 10.71841776 -13.1124099 7.54807864 -12 4 C-8.4382995 -0.19023589 -5.36235215 -0.76605031 0 0 Z " fill="#304854" transform="translate(437,20)"/>
</svg>
